# File created by Blade
# Date/Time:  Tue Jan 27 19:14:14 2015
#---------------------------------------------------------
:version 1.10
:name HOM
:units
  mass 1.0
  length 1.000000
  angle deg
:documentation
     Acclaim Skeleton File
:root
   axis xyz
   order TX TY TZ RX RY RZ
   position 0.000000 0.000000 0.000000
   orientation 0 0 0
:bonedata
   begin
      id 1
      name Spine_dum
      direction 0.000000 1.000000 0.000000
      length 6.116652
      axis 0.0 0.0 0.0 xyz
   end
   begin
      id 2
      name LeftUpLeg_dum
      direction 1.000000 0.000000 0.000000
      length 4.711765
      axis 0.0 0.0 0.0 xyz
   end
   begin
      id 3
      name RightUpLeg_dum
      direction -1.000000 0.000000 0.000000
      length 4.711765
      axis 0.0 0.0 0.0 xyz
   end
   begin
      id 4
      name Spine
      direction 0.000000 1.000000 0.000000
      length 0.000000
      axis 0.0 0.0 0.0 xyz
      dof rx ry rz
   end
   begin
      id 5
      name Spine_dum1
      direction 0.000000 1.000000 0.000000
      length 15.225563
      axis 0.0 0.0 0.0 xyz
   end
   begin
      id 6
      name Spine_dum2
      direction 0.000000 1.000000 0.000000
      length 8.977654
      axis 0.0 0.0 0.0 xyz
   end
   begin
      id 7
      name Spine_dum3
      direction 0.000000 1.000000 0.000000
      length 8.977654
      axis 0.0 0.0 0.0 xyz
   end
   begin
      id 8
      name Head
      direction 0.000000 1.000000 0.000000
      length 4.527550
      axis 0.0 0.0 0.0 xyz
      dof rx ry rz
   end
   begin
      id 9
      name LeftShoulder
      direction 1.000000 0.000000 0.000000
      length 7.110130
      axis 0.0 0.0 -90.0 xyz
      dof rx ry rz
   end
   begin
      id 10
      name LeftArm
      direction 1.000000 0.000000 0.000000
      length 10.398341
      axis 0.0 0.0 -90.0 xyz
      dof rx ry rz
   end
   begin
      id 11
      name LeftForeArm
      direction 1.000000 0.000000 0.000000
      length 8.888997
      axis 0.0 0.0 -90.0 xyz
      dof ry rz rx
   end
   begin
      id 12
      name LeftHand
      direction 0.000000 0.000000 0.000000
      length 0.000000
      axis 0.0 0.0 -90.0 xyz
      dof rx ry rz
   end
   begin
      id 13
      name LeftHand_dum1
      direction 0.000000 0.000000 0.000000
      length 0.000000
      axis 0.0 0.0 -90.0 xyz
   end
   begin
      id 14
      name LeftHand_dum2
      direction 1.000000 0.000000 0.000000
      length 3.937000
      axis 0.0 0.0 -90.0 xyz
   end
   begin
      id 15
      name LeftHandThumb1
      direction 0.000000 0.000000 1.000000
      length 3.937000
      axis 0.0 0.0 -90.0 xyz
      dof rx rz ry
   end
   begin
      id 16
      name RightShoulder
      direction -1.000000 0.000000 0.000000
      length 7.110130
      axis 0.0 0.0 90.0 xyz
      dof rx ry rz
   end
   begin
      id 17
      name RightArm
      direction -1.000000 0.000000 0.000000
      length 10.398341
      axis 0.0 0.0 90.0 xyz
      dof rx ry rz
   end
   begin
      id 18
      name RightForeArm
      direction -1.000000 0.000000 0.000000
      length 8.888997
      axis 0.0 0.0 90.0 xyz
      dof ry rz rx
   end
   begin
      id 19
      name RightHand
      direction 0.000000 0.000000 0.000000
      length 0.000000
      axis 0.0 0.0 90.0 xyz
      dof rx ry rz
   end
   begin
      id 20
      name RightHand_dum1
      direction 0.000000 0.000000 0.000000
      length 0.000000
      axis 0.0 0.0 90.0 xyz
   end
   begin
      id 21
      name RightHand_dum2
      direction -1.000000 0.000000 0.000000
      length 3.937000
      axis 0.0 0.0 90.0 xyz
   end
   begin
      id 22
      name RightHandThumb1
      direction 0.000000 0.000000 1.000000
      length 3.937000
      axis 0.0 0.0 90.0 xyz
      dof rx rz ry
   end
   begin
      id 23
      name LeftUpLeg
      direction 0.000000 -1.000000 0.000000
      length 15.510451
      axis 0.0 0.0 0.0 xyz
      dof rx ry rz
   end
   begin
      id 24
      name LeftLeg
      direction 0.000000 -1.000000 0.000000
      length 14.858061
      axis 0.0 0.0 0.0 xyz
      dof rx ry rz
   end
   begin
      id 25
      name LeftFoot
      direction 0.000000 -0.258819 0.965926
      length 5.128852
      axis 15.0 0.0 0.0 xyz
      dof rx ry rz
   end
   begin
      id 26
      name LeftToeBase
      direction 0.000000 0.000000 1.000000
      length 2.952750
      axis 0.0 0.0 0.0 xyz
      dof rx ry rz
   end
   begin
      id 27
      name RightUpLeg
      direction 0.000000 -1.000000 0.000000
      length 15.510451
      axis 0.0 0.0 0.0 xyz
      dof rx ry rz
   end
   begin
      id 28
      name RightLeg
      direction 0.000000 -1.000000 0.000000
      length 14.858061
      axis 0.0 0.0 0.0 xyz
      dof rx ry rz
   end
   begin
      id 29
      name RightFoot
      direction 0.000000 -0.258819 0.965926
      length 5.128852
      axis 15.0 0.0 0.0 xyz
      dof rx ry rz
   end
   begin
      id 30
      name RightToeBase
      direction 0.000000 0.000000 1.000000
      length 2.952750
      axis 0.0 0.0 0.0 xyz
      dof rx ry rz
   end
:hierarchy
   begin
      root Spine_dum LeftUpLeg_dum RightUpLeg_dum
      Spine_dum Spine
      LeftUpLeg_dum LeftUpLeg
      RightUpLeg_dum RightUpLeg
      Spine Spine_dum1 Spine_dum2 Spine_dum3
      Spine_dum1 Head
      Spine_dum2 LeftShoulder
      Spine_dum3 RightShoulder
      LeftShoulder LeftArm
      LeftArm LeftForeArm
      LeftForeArm LeftHand
      LeftHand LeftHand_dum1 LeftHand_dum2
      LeftHand_dum1 LeftHandThumb1
      RightShoulder RightArm
      RightArm RightForeArm
      RightForeArm RightHand
      RightHand RightHand_dum1 RightHand_dum2
      RightHand_dum1 RightHandThumb1
      LeftUpLeg LeftLeg
      LeftLeg LeftFoot
      LeftFoot LeftToeBase
      RightUpLeg RightLeg
      RightLeg RightFoot
      RightFoot RightToeBase
   end

# File created by Blade
# Date/Time:  Tue Jan 27 19:14:06 2015
# Frame Rate: 120.000 fps
#------------------------------------------------------
:FULLY-SPECIFIED
:DEGREES
1268
root 4.279762 32.428746 0.802763 -3.253565 17.262233 2.290024
Spine -2.182859 14.858572 -2.195423
Head 14.000647 -23.767459 -8.543927
LeftShoulder -5.031189 -9.396818 22.588860
LeftArm -6.194158 39.327447 -104.381164
LeftForeArm 4.596198 -0.000000 11.542845
LeftHand 9.980071 -0.000000 -8.769793
LeftHandThumb1 -26.253704 0.000000 33.147579
RightShoulder -12.247302 18.617550 -55.046743
RightArm 112.599448 43.486677 134.869206
RightForeArm 36.506380 -0.000000 142.914686
RightHand 31.315671 0.000000 -9.868731
RightHandThumb1 -24.326973 -0.000000 -32.862282
LeftUpLeg 7.462572 -10.597912 -2.603244
LeftLeg 2.884565 -0.000000 -0.000000
LeftFoot -12.297273 5.630183 -21.212244
LeftToeBase 19.047760 -0.000000 -0.000000
RightUpLeg 12.550958 -6.537523 1.795089
RightLeg -2.577515 -0.000000 0.000000
RightFoot -15.427464 -21.684503 17.755742
RightToeBase 11.570679 -0.000000 -0.000000
1269
root 4.281182 32.430278 0.804579 -3.233372 17.316241 2.295935
Spine -2.190513 14.885880 -2.168553
Head 14.144319 -23.725661 -8.735779
LeftShoulder -5.016249 -9.421253 22.509653
LeftArm -6.184160 39.280041 -104.329326
LeftForeArm 4.652270 -0.000000 11.475509
LeftHand 9.915974 -0.000000 -8.900117
LeftHandThumb1 -26.253704 0.000000 33.147579
RightShoulder -12.651910 20.948067 -56.202225
RightArm 110.766203 45.426482 133.860760
RightForeArm 36.990164 -0.000000 143.877115
RightHand 31.570850 -0.000000 -9.684326
RightHandThumb1 -24.326973 -0.000000 -32.862282
LeftUpLeg 7.435970 -10.598523 -2.601004
LeftLeg 2.882167 -0.000000 -0.000000
LeftFoot -12.288864 5.640934 -21.060442
LeftToeBase 19.254638 -0.000000 -0.000000
RightUpLeg 12.555945 -6.544376 1.794679
RightLeg -2.603915 -0.000000 0.000000
RightFoot -15.438240 -21.718611 17.791293
RightToeBase 11.653025 -0.000000 -0.000000
1270
root 4.281982 32.432677 0.804590 -3.198783 17.371204 2.301447
Spine -2.234782 14.865513 -2.156145
Head 14.311069 -23.733282 -8.915743
LeftShoulder -5.030065 -9.391737 22.444813
LeftArm -6.128016 39.228083 -104.263112
LeftForeArm 4.675789 -0.000000 11.387441
LeftHand 9.856335 0.000000 -8.932022
LeftHandThumb1 -26.253704 0.000000 33.147579
RightShoulder -13.075949 23.385316 -57.382870
RightArm 108.754646 47.384387 132.707244
RightForeArm 37.454240 0.000000 144.909958
RightHand 31.842443 0.000000 -9.435986
RightHandThumb1 -24.326973 -0.000000 -32.862282
LeftUpLeg 7.388050 -10.619485 -2.597549
LeftLeg 2.899852 -0.000000 -0.000000
LeftFoot -12.222665 5.574835 -21.163770
LeftToeBase 19.003845 -0.000000 -0.000000
RightUpLeg 12.539749 -6.530457 1.802461
RightLeg -2.628833 -0.000000 0.000000
RightFoot -15.427580 -21.799177 17.798308
RightToeBase 11.622739 -0.000000 -0.000000
1271
root 4.283886 32.433213 0.806912 -3.169409 17.426042 2.313229
Spine -2.258479 14.884707 -2.148102
Head 14.434175 -23.704190 -9.063804
LeftShoulder -5.034287 -9.430108 22.379429
LeftArm -6.130172 39.172658 -104.229941
LeftForeArm 4.664437 -0.000000 11.288982
LeftHand 9.946876 -0.000000 -8.537920
LeftHandThumb1 -26.253704 0.000000 33.147579
RightShoulder -13.375521 23.538108 -57.616802
RightArm 108.870105 47.397532 132.320225
RightForeArm 37.511694 -0.000000 145.791374
RightHand 32.058264 -0.000000 -9.098126
RightHandThumb1 -24.326973 -0.000000 -32.862282
LeftUpLeg 7.359784 -10.645415 -2.601872
LeftLeg 2.897940 -0.000000 -0.000000
LeftFoot -12.188298 5.538035 -21.179234
LeftToeBase 18.977412 -0.000000 -0.000000
RightUpLeg 12.536506 -6.532982 1.799769
RightLeg -2.653662 -0.000000 0.000000
RightFoot -15.439574 -21.855821 17.818872
RightToeBase 11.660439 -0.000000 -0.000000
1272
root 4.284626 32.434115 0.808887 -3.152067 17.479595 2.320244
Spine -2.282688 14.862384 -2.144108
Head 14.589720 -23.646046 -9.209685
LeftShoulder -5.059689 -9.427805 22.325649
LeftArm -6.099069 39.109470 -104.181321
LeftForeArm 4.643073 -0.000000 11.192410
LeftHand 9.974332 0.000000 -8.199285
LeftHandThumb1 -26.253704 0.000000 33.147579
RightShoulder -13.617236 23.597508 -57.766099
RightArm 109.181868 47.275974 132.111838
RightForeArm 37.654896 -0.000000 146.723823
RightHand 32.407660 -0.000000 -8.444308
RightHandThumb1 -24.326973 -0.000000 -32.862282
LeftUpLeg 7.339149 -10.667712 -2.602877
LeftLeg 2.900856 -0.000000 -0.000000
LeftFoot -12.171198 5.510129 -21.172202
LeftToeBase 19.042492 -0.000000 -0.000000
RightUpLeg 12.545737 -6.512678 1.802513
RightLeg -2.677587 -0.000000 0.000000
RightFoot -15.445087 -21.907137 17.835827
RightToeBase 11.630337 -0.000000 -0.000000
